STARTFONT 2.1
COMMENT Exported by Fony v1.4.7
FONT LED Dot matrix
SIZE 10 10 10
FONTBOUNDINGBOX 9 9 0 -1
STARTPROPERTIES 6
COPYRIGHT "Created with Fony 1.4.7"
RESOLUTION_X 10
RESOLUTION_Y 10
FONT_ASCENT 9
FONT_DESCENT 1
DEFAULT_CHAR 0
ENDPROPERTIES
CHARS 256
STARTCHAR 000
ENCODING 0
SWIDTH 648 0
DWIDTH 9 0
BBX 8 10 0 -1
BITMAP
FF
FF
FF
FF
FF
FF
FF
FF
FF
FF
ENDCHAR
STARTCHAR 001
ENCODING 1
SWIDTH 648 0
DWIDTH 9 0
BBX 8 9 0 0
BITMAP
7E
C3
81
A5
81
BD
99
C3
7E
ENDCHAR
STARTCHAR 002
ENCODING 2
SWIDTH 648 0
DWIDTH 9 0
BBX 8 9 0 0
BITMAP
7E
FF
FF
DB
FF
C3
E7
FF
7E
ENDCHAR
STARTCHAR 003
ENCODING 3
SWIDTH 648 0
DWIDTH 9 0
BBX 8 8 0 0
BITMAP
66
FF
FF
FF
FF
7E
3C
18
ENDCHAR
STARTCHAR 004
ENCODING 4
SWIDTH 576 0
DWIDTH 8 0
BBX 7 9 0 0
BITMAP
10
38
7C
FE
FE
FE
7C
38
10
ENDCHAR
STARTCHAR 005
ENCODING 5
SWIDTH 648 0
DWIDTH 9 0
BBX 8 9 0 0
BITMAP
18
3C
3C
FF
E7
E7
18
18
7E
ENDCHAR
STARTCHAR 006
ENCODING 6
SWIDTH 648 0
DWIDTH 9 0
BBX 8 9 0 0
BITMAP
18
3C
7E
FF
FF
7E
18
18
7E
ENDCHAR
STARTCHAR 007
ENCODING 7
SWIDTH 504 0
DWIDTH 7 0
BBX 6 6 0 1
BITMAP
30
78
FC
FC
78
30
ENDCHAR
STARTCHAR 008
ENCODING 8
SWIDTH 648 0
DWIDTH 9 0
BBX 8 10 0 -1
BITMAP
FF
FF
E7
C3
81
81
C3
E7
FF
FF
ENDCHAR
STARTCHAR 009
ENCODING 9
SWIDTH 504 0
DWIDTH 7 0
BBX 6 8 0 0
BITMAP
78
FC
CC
84
84
CC
FC
78
ENDCHAR
STARTCHAR 010
ENCODING 10
SWIDTH 648 0
DWIDTH 9 0
BBX 8 10 0 -1
BITMAP
FF
C3
81
99
BD
BD
99
81
C3
FF
ENDCHAR
STARTCHAR 011
ENCODING 11
SWIDTH 576 0
DWIDTH 8 0
BBX 7 9 0 0
BITMAP
3E
0E
3A
72
F8
CC
CC
CC
78
ENDCHAR
STARTCHAR 012
ENCODING 12
SWIDTH 504 0
DWIDTH 7 0
BBX 6 9 0 0
BITMAP
78
CC
CC
CC
78
30
FC
30
30
ENDCHAR
STARTCHAR 013
ENCODING 13
SWIDTH 648 0
DWIDTH 9 0
BBX 8 9 0 0
BITMAP
1F
19
19
1F
18
18
78
F8
70
ENDCHAR
STARTCHAR 014
ENCODING 14
SWIDTH 648 0
DWIDTH 9 0
BBX 8 9 0 0
BITMAP
7F
63
7F
63
63
63
67
E7
E6
ENDCHAR
STARTCHAR 015
ENCODING 15
SWIDTH 648 0
DWIDTH 9 0
BBX 8 8 0 0
BITMAP
18
DB
7E
E7
E7
7E
DB
18
ENDCHAR
STARTCHAR 016
ENCODING 16
SWIDTH 576 0
DWIDTH 8 0
BBX 7 10 0 -1
BITMAP
80
C0
E0
F8
FE
FE
F8
E0
C0
80
ENDCHAR
STARTCHAR 017
ENCODING 17
SWIDTH 576 0
DWIDTH 8 0
BBX 7 10 0 -1
BITMAP
02
06
0E
3E
FE
FE
3E
0E
06
02
ENDCHAR
STARTCHAR 018
ENCODING 18
SWIDTH 504 0
DWIDTH 7 0
BBX 6 10 0 -1
BITMAP
30
78
FC
30
30
30
30
FC
78
30
ENDCHAR
STARTCHAR 019
ENCODING 19
SWIDTH 504 0
DWIDTH 7 0
BBX 6 10 0 -1
BITMAP
CC
CC
CC
CC
CC
CC
00
00
CC
CC
ENDCHAR
STARTCHAR 020
ENCODING 20
SWIDTH 648 0
DWIDTH 9 0
BBX 8 10 0 -1
BITMAP
7F
DB
DB
DB
7B
1B
1B
1B
1B
1B
ENDCHAR
STARTCHAR 021
ENCODING 21
SWIDTH 648 0
DWIDTH 9 0
BBX 8 10 0 -1
BITMAP
7E
63
30
3C
66
66
3C
0C
C6
7E
ENDCHAR
STARTCHAR 022
ENCODING 22
SWIDTH 576 0
DWIDTH 8 0
BBX 7 3 0 -1
BITMAP
FE
FE
FE
ENDCHAR
STARTCHAR 023
ENCODING 23
SWIDTH 504 0
DWIDTH 7 0
BBX 6 10 0 -1
BITMAP
30
78
FC
30
30
30
30
FC
78
30
ENDCHAR
STARTCHAR 024
ENCODING 24
SWIDTH 504 0
DWIDTH 7 0
BBX 6 10 0 -1
BITMAP
30
78
FC
30
30
30
30
30
30
30
ENDCHAR
STARTCHAR 025
ENCODING 25
SWIDTH 504 0
DWIDTH 7 0
BBX 6 10 0 -1
BITMAP
30
30
30
30
30
30
30
FC
78
30
ENDCHAR
STARTCHAR 026
ENCODING 26
SWIDTH 648 0
DWIDTH 9 0
BBX 8 5 0 1
BITMAP
0C
06
FF
06
0C
ENDCHAR
STARTCHAR 027
ENCODING 27
SWIDTH 648 0
DWIDTH 9 0
BBX 8 5 0 1
BITMAP
30
60
FF
60
30
ENDCHAR
STARTCHAR 028
ENCODING 28
SWIDTH 648 0
DWIDTH 9 0
BBX 8 4 0 1
BITMAP
C0
C0
C0
FF
ENDCHAR
STARTCHAR 029
ENCODING 29
SWIDTH 648 0
DWIDTH 9 0
BBX 8 5 0 1
BITMAP
24
66
FF
66
24
ENDCHAR
STARTCHAR 030
ENCODING 30
SWIDTH 648 0
DWIDTH 9 0
BBX 8 8 0 0
BITMAP
18
18
3C
3C
7E
7E
FF
FF
ENDCHAR
STARTCHAR 031
ENCODING 31
SWIDTH 648 0
DWIDTH 9 0
BBX 8 8 0 0
BITMAP
FF
FF
7E
7E
3C
3C
18
18
ENDCHAR
STARTCHAR 032
ENCODING 32
SWIDTH 576 0
DWIDTH 8 0
BBX 0 0 0 0
BITMAP
ENDCHAR
STARTCHAR 033
ENCODING 33
SWIDTH 144 0
DWIDTH 2 0
BBX 1 9 0 -1
BITMAP
80
80
80
80
80
80
80
00
80
ENDCHAR
STARTCHAR 034
ENCODING 34
SWIDTH 288 0
DWIDTH 4 0
BBX 3 3 0 5
BITMAP
A0
A0
A0
ENDCHAR
STARTCHAR 035
ENCODING 35
SWIDTH 576 0
DWIDTH 8 0
BBX 7 7 0 0
BITMAP
28
28
FE
28
FE
28
28
ENDCHAR
STARTCHAR 036
ENCODING 36
SWIDTH 576 0
DWIDTH 8 0
BBX 7 9 0 -1
BITMAP
10
7C
90
90
7C
12
92
7C
10
ENDCHAR
STARTCHAR 037
ENCODING 37
SWIDTH 576 0
DWIDTH 8 0
BBX 7 7 0 0
BITMAP
42
A4
48
10
24
4A
84
ENDCHAR
STARTCHAR 038
ENCODING 38
SWIDTH 576 0
DWIDTH 8 0
BBX 7 8 0 0
BITMAP
78
84
84
58
66
98
88
76
ENDCHAR
STARTCHAR 039
ENCODING 39
SWIDTH 144 0
DWIDTH 2 0
BBX 1 2 0 6
BITMAP
80
80
ENDCHAR
STARTCHAR 040
ENCODING 40
SWIDTH 288 0
DWIDTH 4 0
BBX 3 8 0 0
BITMAP
20
40
80
80
80
80
40
20
ENDCHAR
STARTCHAR 041
ENCODING 41
SWIDTH 288 0
DWIDTH 4 0
BBX 3 8 0 0
BITMAP
80
40
20
20
20
20
40
80
ENDCHAR
STARTCHAR 042
ENCODING 42
SWIDTH 432 0
DWIDTH 6 0
BBX 5 5 0 2
BITMAP
A8
70
F8
70
A8
ENDCHAR
STARTCHAR 043
ENCODING 43
SWIDTH 432 0
DWIDTH 6 0
BBX 5 5 0 2
BITMAP
20
20
F8
20
20
ENDCHAR
STARTCHAR 044
ENCODING 44
SWIDTH 216 0
DWIDTH 3 0
BBX 2 2 0 -1
BITMAP
40
80
ENDCHAR
STARTCHAR 045
ENCODING 45
SWIDTH 432 0
DWIDTH 6 0
BBX 5 1 0 4
BITMAP
F8
ENDCHAR
STARTCHAR 046
ENCODING 46
SWIDTH 144 0
DWIDTH 2 0
BBX 1 1 0 0
BITMAP
80
ENDCHAR
STARTCHAR 047
ENCODING 47
SWIDTH 576 0
DWIDTH 8 0
BBX 7 7 0 0
BITMAP
02
04
08
10
20
40
80
ENDCHAR
STARTCHAR 048
ENCODING 48
SWIDTH 432 0
DWIDTH 6 0
BBX 5 8 0 0
BITMAP
70
88
88
88
88
88
88
70
ENDCHAR
STARTCHAR 049
ENCODING 49
SWIDTH 432 0
DWIDTH 6 0
BBX 5 8 0 0
BITMAP
60
A0
20
20
20
20
20
F8
ENDCHAR
STARTCHAR 050
ENCODING 50
SWIDTH 576 0
DWIDTH 8 0
BBX 7 8 0 0
BITMAP
7C
82
84
08
10
20
40
FE
ENDCHAR
STARTCHAR 051
ENCODING 51
SWIDTH 576 0
DWIDTH 8 0
BBX 7 8 0 0
BITMAP
7C
82
02
3C
02
02
82
7C
ENDCHAR
STARTCHAR 052
ENCODING 52
SWIDTH 576 0
DWIDTH 8 0
BBX 7 9 0 -1
BITMAP
04
0C
14
24
44
84
FE
04
04
ENDCHAR
STARTCHAR 053
ENCODING 53
SWIDTH 576 0
DWIDTH 8 0
BBX 7 8 0 0
BITMAP
FE
80
80
FC
02
02
82
7C
ENDCHAR
STARTCHAR 054
ENCODING 54
SWIDTH 576 0
DWIDTH 8 0
BBX 7 8 0 0
BITMAP
7C
82
80
FC
82
82
82
7C
ENDCHAR
STARTCHAR 055
ENCODING 55
SWIDTH 576 0
DWIDTH 8 0
BBX 7 8 0 0
BITMAP
FE
82
04
08
10
20
40
80
ENDCHAR
STARTCHAR 056
ENCODING 56
SWIDTH 576 0
DWIDTH 8 0
BBX 7 8 0 0
BITMAP
7C
82
82
7C
82
82
82
7C
ENDCHAR
STARTCHAR 057
ENCODING 57
SWIDTH 576 0
DWIDTH 8 0
BBX 7 8 0 0
BITMAP
7C
82
82
82
7E
02
82
7C
ENDCHAR
STARTCHAR 058
ENCODING 58
SWIDTH 144 0
DWIDTH 2 0
BBX 1 5 0 0
BITMAP
80
00
00
00
80
ENDCHAR
STARTCHAR 059
ENCODING 59
SWIDTH 216 0
DWIDTH 3 0
BBX 2 6 0 -1
BITMAP
40
00
00
00
40
80
ENDCHAR
STARTCHAR 060
ENCODING 60
SWIDTH 360 0
DWIDTH 5 0
BBX 4 7 0 0
BITMAP
10
20
40
80
40
20
10
ENDCHAR
STARTCHAR 061
ENCODING 61
SWIDTH 432 0
DWIDTH 6 0
BBX 5 3 0 2
BITMAP
F8
00
F8
ENDCHAR
STARTCHAR 062
ENCODING 62
SWIDTH 360 0
DWIDTH 5 0
BBX 4 7 0 0
BITMAP
80
40
20
10
20
40
80
ENDCHAR
STARTCHAR 063
ENCODING 63
SWIDTH 576 0
DWIDTH 8 0
BBX 7 9 0 -1
BITMAP
7C
82
02
04
08
10
10
00
10
ENDCHAR
STARTCHAR 064
ENCODING 64
SWIDTH 576 0
DWIDTH 8 0
BBX 7 8 0 0
BITMAP
7C
82
9E
A2
A6
9A
80
7C
ENDCHAR
STARTCHAR 065
ENCODING 65
SWIDTH 576 0
DWIDTH 8 0
BBX 7 8 0 0
BITMAP
7C
82
82
FE
82
82
82
82
ENDCHAR
STARTCHAR 066
ENCODING 66
SWIDTH 576 0
DWIDTH 8 0
BBX 7 8 0 0
BITMAP
FC
82
82
FC
82
82
82
FC
ENDCHAR
STARTCHAR 067
ENCODING 67
SWIDTH 576 0
DWIDTH 8 0
BBX 7 8 0 0
BITMAP
7C
82
80
80
80
80
82
7C
ENDCHAR
STARTCHAR 068
ENCODING 68
SWIDTH 576 0
DWIDTH 8 0
BBX 7 8 0 0
BITMAP
FC
82
82
82
82
82
82
FC
ENDCHAR
STARTCHAR 069
ENCODING 69
SWIDTH 576 0
DWIDTH 8 0
BBX 7 8 0 0
BITMAP
FE
80
80
F8
80
80
80
FE
ENDCHAR
STARTCHAR 070
ENCODING 70
SWIDTH 576 0
DWIDTH 8 0
BBX 7 8 0 0
BITMAP
FE
80
80
F8
80
80
80
80
ENDCHAR
STARTCHAR 071
ENCODING 71
SWIDTH 576 0
DWIDTH 8 0
BBX 7 8 0 0
BITMAP
7C
82
80
80
86
82
82
7C
ENDCHAR
STARTCHAR 072
ENCODING 72
SWIDTH 576 0
DWIDTH 8 0
BBX 7 8 0 0
BITMAP
82
82
82
FE
82
82
82
82
ENDCHAR
STARTCHAR 073
ENCODING 73
SWIDTH 288 0
DWIDTH 4 0
BBX 3 8 0 0
BITMAP
E0
40
40
40
40
40
40
E0
ENDCHAR
STARTCHAR 074
ENCODING 74
SWIDTH 576 0
DWIDTH 8 0
BBX 7 8 0 0
BITMAP
02
02
02
02
02
82
82
7C
ENDCHAR
STARTCHAR 075
ENCODING 75
SWIDTH 576 0
DWIDTH 8 0
BBX 7 8 0 0
BITMAP
82
84
88
F0
90
88
84
82
ENDCHAR
STARTCHAR 076
ENCODING 76
SWIDTH 576 0
DWIDTH 8 0
BBX 7 8 0 0
BITMAP
80
80
80
80
80
80
80
FE
ENDCHAR
STARTCHAR 077
ENCODING 77
SWIDTH 576 0
DWIDTH 8 0
BBX 7 8 0 0
BITMAP
82
C6
AA
92
82
82
82
82
ENDCHAR
STARTCHAR 078
ENCODING 78
SWIDTH 576 0
DWIDTH 8 0
BBX 7 8 0 0
BITMAP
82
C2
A2
92
8A
86
82
82
ENDCHAR
STARTCHAR 079
ENCODING 79
SWIDTH 576 0
DWIDTH 8 0
BBX 7 8 0 0
BITMAP
7C
82
82
82
82
82
82
7C
ENDCHAR
STARTCHAR 080
ENCODING 80
SWIDTH 504 0
DWIDTH 7 0
BBX 6 8 0 0
BITMAP
F8
84
84
F8
80
80
80
80
ENDCHAR
STARTCHAR 081
ENCODING 81
SWIDTH 576 0
DWIDTH 8 0
BBX 7 9 0 -1
BITMAP
7C
82
82
82
82
82
8A
7C
04
ENDCHAR
STARTCHAR 082
ENCODING 82
SWIDTH 504 0
DWIDTH 7 0
BBX 6 8 0 0
BITMAP
F8
84
84
F8
A0
90
88
84
ENDCHAR
STARTCHAR 083
ENCODING 83
SWIDTH 576 0
DWIDTH 8 0
BBX 7 8 0 0
BITMAP
7C
82
80
78
04
02
82
7C
ENDCHAR
STARTCHAR 084
ENCODING 84
SWIDTH 576 0
DWIDTH 8 0
BBX 7 8 0 0
BITMAP
FE
10
10
10
10
10
10
10
ENDCHAR
STARTCHAR 085
ENCODING 85
SWIDTH 576 0
DWIDTH 8 0
BBX 7 8 0 0
BITMAP
82
82
82
82
82
82
82
7C
ENDCHAR
STARTCHAR 086
ENCODING 86
SWIDTH 576 0
DWIDTH 8 0
BBX 7 8 0 0
BITMAP
82
82
82
82
82
44
28
10
ENDCHAR
STARTCHAR 087
ENCODING 87
SWIDTH 576 0
DWIDTH 8 0
BBX 7 8 0 0
BITMAP
82
82
82
82
82
92
AA
44
ENDCHAR
STARTCHAR 088
ENCODING 88
SWIDTH 576 0
DWIDTH 8 0
BBX 7 8 0 0
BITMAP
82
44
28
10
10
28
44
82
ENDCHAR
STARTCHAR 089
ENCODING 89
SWIDTH 576 0
DWIDTH 8 0
BBX 7 8 0 0
BITMAP
82
82
44
28
10
10
10
10
ENDCHAR
STARTCHAR 090
ENCODING 90
SWIDTH 576 0
DWIDTH 8 0
BBX 7 8 0 0
BITMAP
FE
04
08
10
20
40
80
FE
ENDCHAR
STARTCHAR 091
ENCODING 91
SWIDTH 288 0
DWIDTH 4 0
BBX 3 8 0 0
BITMAP
E0
80
80
80
80
80
80
E0
ENDCHAR
STARTCHAR 092
ENCODING 92
SWIDTH 576 0
DWIDTH 8 0
BBX 7 7 0 0
BITMAP
80
40
20
10
08
04
02
ENDCHAR
STARTCHAR 093
ENCODING 93
SWIDTH 288 0
DWIDTH 4 0
BBX 3 8 0 0
BITMAP
E0
20
20
20
20
20
20
E0
ENDCHAR
STARTCHAR 094
ENCODING 94
SWIDTH 432 0
DWIDTH 6 0
BBX 5 3 0 6
BITMAP
20
50
88
ENDCHAR
STARTCHAR 095
ENCODING 95
SWIDTH 576 0
DWIDTH 8 0
BBX 7 1 0 -1
BITMAP
FE
ENDCHAR
STARTCHAR 096
ENCODING 96
SWIDTH 288 0
DWIDTH 4 0
BBX 3 3 0 6
BITMAP
80
40
20
ENDCHAR
STARTCHAR 097
ENCODING 97
SWIDTH 576 0
DWIDTH 8 0
BBX 7 6 0 0
BITMAP
74
8C
84
84
8C
76
ENDCHAR
STARTCHAR 098
ENCODING 98
SWIDTH 576 0
DWIDTH 8 0
BBX 7 8 0 0
BITMAP
C0
40
5C
62
42
42
62
DC
ENDCHAR
STARTCHAR 099
ENCODING 99
SWIDTH 576 0
DWIDTH 8 0
BBX 7 6 0 0
BITMAP
7C
82
80
80
82
7C
ENDCHAR
STARTCHAR 100
ENCODING 100
SWIDTH 576 0
DWIDTH 8 0
BBX 7 8 0 0
BITMAP
06
04
74
8C
84
84
8C
76
ENDCHAR
STARTCHAR 101
ENCODING 101
SWIDTH 576 0
DWIDTH 8 0
BBX 7 6 0 0
BITMAP
7C
82
FE
80
82
7C
ENDCHAR
STARTCHAR 102
ENCODING 102
SWIDTH 504 0
DWIDTH 7 0
BBX 6 8 0 0
BITMAP
38
44
40
F0
40
40
40
F0
ENDCHAR
STARTCHAR 103
ENCODING 103
SWIDTH 576 0
DWIDTH 8 0
BBX 7 7 0 -1
BITMAP
76
8C
84
7C
04
84
78
ENDCHAR
STARTCHAR 104
ENCODING 104
SWIDTH 576 0
DWIDTH 8 0
BBX 7 8 0 0
BITMAP
C0
40
5C
62
42
42
42
E2
ENDCHAR
STARTCHAR 105
ENCODING 105
SWIDTH 288 0
DWIDTH 4 0
BBX 3 8 0 0
BITMAP
40
00
C0
40
40
40
40
E0
ENDCHAR
STARTCHAR 106
ENCODING 106
SWIDTH 432 0
DWIDTH 6 0
BBX 5 9 0 -1
BITMAP
08
00
18
08
08
08
08
88
70
ENDCHAR
STARTCHAR 107
ENCODING 107
SWIDTH 576 0
DWIDTH 8 0
BBX 7 8 0 0
BITMAP
C0
40
4C
50
60
50
48
C6
ENDCHAR
STARTCHAR 108
ENCODING 108
SWIDTH 288 0
DWIDTH 4 0
BBX 3 8 0 0
BITMAP
C0
40
40
40
40
40
40
E0
ENDCHAR
STARTCHAR 109
ENCODING 109
SWIDTH 576 0
DWIDTH 8 0
BBX 7 6 0 0
BITMAP
A8
54
54
54
54
D6
ENDCHAR
STARTCHAR 110
ENCODING 110
SWIDTH 576 0
DWIDTH 8 0
BBX 7 6 0 0
BITMAP
D8
64
44
44
44
EE
ENDCHAR
STARTCHAR 111
ENCODING 111
SWIDTH 504 0
DWIDTH 7 0
BBX 6 6 0 0
BITMAP
78
84
84
84
84
78
ENDCHAR
STARTCHAR 112
ENCODING 112
SWIDTH 504 0
DWIDTH 7 0
BBX 6 7 0 -1
BITMAP
D8
64
44
44
78
40
E0
ENDCHAR
STARTCHAR 113
ENCODING 113
SWIDTH 504 0
DWIDTH 7 0
BBX 6 7 0 -1
BITMAP
6C
98
88
88
78
08
1C
ENDCHAR
STARTCHAR 114
ENCODING 114
SWIDTH 504 0
DWIDTH 7 0
BBX 6 6 0 0
BITMAP
D8
64
40
40
40
E0
ENDCHAR
STARTCHAR 115
ENCODING 115
SWIDTH 504 0
DWIDTH 7 0
BBX 6 6 0 0
BITMAP
78
84
70
08
84
78
ENDCHAR
STARTCHAR 116
ENCODING 116
SWIDTH 504 0
DWIDTH 7 0
BBX 6 8 0 0
BITMAP
40
40
F8
40
40
40
44
38
ENDCHAR
STARTCHAR 117
ENCODING 117
SWIDTH 576 0
DWIDTH 8 0
BBX 7 6 0 0
BITMAP
84
84
84
84
8C
76
ENDCHAR
STARTCHAR 118
ENCODING 118
SWIDTH 504 0
DWIDTH 7 0
BBX 6 6 0 0
BITMAP
84
84
84
84
48
30
ENDCHAR
STARTCHAR 119
ENCODING 119
SWIDTH 576 0
DWIDTH 8 0
BBX 7 6 0 0
BITMAP
82
82
82
92
AA
44
ENDCHAR
STARTCHAR 120
ENCODING 120
SWIDTH 432 0
DWIDTH 6 0
BBX 5 6 0 0
BITMAP
88
50
20
20
50
88
ENDCHAR
STARTCHAR 121
ENCODING 121
SWIDTH 576 0
DWIDTH 8 0
BBX 7 7 0 -1
BITMAP
86
84
84
7C
04
84
78
ENDCHAR
STARTCHAR 122
ENCODING 122
SWIDTH 504 0
DWIDTH 7 0
BBX 6 6 0 0
BITMAP
FC
88
10
20
44
FC
ENDCHAR
STARTCHAR 123
ENCODING 123
SWIDTH 360 0
DWIDTH 5 0
BBX 4 9 0 -1
BITMAP
30
40
40
40
80
40
40
40
30
ENDCHAR
STARTCHAR 124
ENCODING 124
SWIDTH 144 0
DWIDTH 2 0
BBX 1 9 0 -1
BITMAP
80
80
80
80
80
80
80
80
80
ENDCHAR
STARTCHAR 125
ENCODING 125
SWIDTH 360 0
DWIDTH 5 0
BBX 4 9 0 -1
BITMAP
C0
20
20
20
10
20
20
20
C0
ENDCHAR
STARTCHAR 126
ENCODING 126
SWIDTH 432 0
DWIDTH 6 0
BBX 5 3 0 6
BITMAP
48
A8
90
ENDCHAR
STARTCHAR 127
ENCODING 127
SWIDTH 576 0
DWIDTH 8 0
BBX 7 10 0 -1
BITMAP
FE
FE
FE
FE
FE
FE
FE
FE
FE
FE
ENDCHAR
STARTCHAR 128
ENCODING 128
SWIDTH 576 0
DWIDTH 8 0
BBX 7 9 0 -1
BITMAP
3C
42
40
F8
40
F8
40
42
3C
ENDCHAR
STARTCHAR 129
ENCODING 129
SWIDTH 504 0
DWIDTH 7 0
BBX 6 8 0 0
BITMAP
FC
FC
FC
FC
FC
FC
FC
FC
ENDCHAR
STARTCHAR 130
ENCODING 130
SWIDTH 216 0
DWIDTH 3 0
BBX 2 4 0 -1
BITMAP
C0
C0
40
80
ENDCHAR
STARTCHAR 131
ENCODING 131
SWIDTH 432 0
DWIDTH 6 0
BBX 5 8 0 0
BITMAP
18
20
20
70
20
20
20
C0
ENDCHAR
STARTCHAR 132
ENCODING 132
SWIDTH 432 0
DWIDTH 6 0
BBX 5 4 0 -1
BITMAP
D8
D8
48
90
ENDCHAR
STARTCHAR 133
ENCODING 133
SWIDTH 432 0
DWIDTH 6 0
BBX 5 1 0 0
BITMAP
A8
ENDCHAR
STARTCHAR 134
ENCODING 134
SWIDTH 288 0
DWIDTH 4 0
BBX 3 4 0 4
BITMAP
40
E0
40
40
ENDCHAR
STARTCHAR 135
ENCODING 135
SWIDTH 288 0
DWIDTH 4 0
BBX 3 7 0 1
BITMAP
40
E0
40
E0
40
40
40
ENDCHAR
STARTCHAR 136
ENCODING 136
SWIDTH 288 0
DWIDTH 4 0
BBX 3 2 0 6
BITMAP
40
A0
ENDCHAR
STARTCHAR 137
ENCODING 137
SWIDTH 576 0
DWIDTH 8 0
BBX 7 8 0 -1
BITMAP
42
A4
48
10
20
54
AA
14
ENDCHAR
STARTCHAR 138
ENCODING 138
SWIDTH 576 0
DWIDTH 8 0
BBX 7 9 0 -1
BITMAP
44
28
7C
82
80
7C
02
02
FC
ENDCHAR
STARTCHAR 139
ENCODING 139
SWIDTH 216 0
DWIDTH 3 0
BBX 2 3 0 5
BITMAP
40
80
40
ENDCHAR
STARTCHAR 140
ENCODING 140
SWIDTH 576 0
DWIDTH 8 0
BBX 7 8 0 0
BITMAP
6E
98
88
88
8E
88
98
6E
ENDCHAR
STARTCHAR 141
ENCODING 141
SWIDTH 504 0
DWIDTH 7 0
BBX 6 8 0 0
BITMAP
FC
FC
FC
FC
FC
FC
FC
FC
ENDCHAR
STARTCHAR 142
ENCODING 142
SWIDTH 576 0
DWIDTH 8 0
BBX 7 9 0 0
BITMAP
28
10
00
FE
04
18
20
40
FE
ENDCHAR
STARTCHAR 143
ENCODING 143
SWIDTH 504 0
DWIDTH 7 0
BBX 6 8 0 0
BITMAP
FC
FC
FC
FC
FC
FC
FC
FC
ENDCHAR
STARTCHAR 144
ENCODING 144
SWIDTH 504 0
DWIDTH 7 0
BBX 6 8 0 0
BITMAP
FC
FC
FC
FC
FC
FC
FC
FC
ENDCHAR
STARTCHAR 145
ENCODING 145
SWIDTH 216 0
DWIDTH 3 0
BBX 2 4 0 5
BITMAP
C0
C0
80
40
ENDCHAR
STARTCHAR 146
ENCODING 146
SWIDTH 216 0
DWIDTH 3 0
BBX 2 4 0 5
BITMAP
C0
C0
40
80
ENDCHAR
STARTCHAR 147
ENCODING 147
SWIDTH 432 0
DWIDTH 6 0
BBX 5 4 0 5
BITMAP
48
90
D8
D8
ENDCHAR
STARTCHAR 148
ENCODING 148
SWIDTH 432 0
DWIDTH 6 0
BBX 5 4 0 5
BITMAP
D8
D8
48
90
ENDCHAR
STARTCHAR 149
ENCODING 149
SWIDTH 432 0
DWIDTH 6 0
BBX 5 5 0 1
BITMAP
20
70
F8
70
20
ENDCHAR
STARTCHAR 150
ENCODING 150
SWIDTH 288 0
DWIDTH 4 0
BBX 3 1 0 3
BITMAP
E0
ENDCHAR
STARTCHAR 151
ENCODING 151
SWIDTH 432 0
DWIDTH 6 0
BBX 5 1 0 3
BITMAP
F8
ENDCHAR
STARTCHAR 152
ENCODING 152
SWIDTH 360 0
DWIDTH 5 0
BBX 4 2 0 6
BITMAP
50
A0
ENDCHAR
STARTCHAR 153
ENCODING 153
SWIDTH 576 0
DWIDTH 8 0
BBX 7 4 0 4
BITMAP
EE
4E
4A
4A
ENDCHAR
STARTCHAR 154
ENCODING 154
SWIDTH 504 0
DWIDTH 7 0
BBX 6 8 0 0
BITMAP
50
20
78
84
70
08
84
78
ENDCHAR
STARTCHAR 155
ENCODING 155
SWIDTH 216 0
DWIDTH 3 0
BBX 2 3 0 5
BITMAP
80
40
80
ENDCHAR
STARTCHAR 156
ENCODING 156
SWIDTH 504 0
DWIDTH 7 0
BBX 6 6 0 0
BITMAP
78
A4
B8
A0
A4
78
ENDCHAR
STARTCHAR 157
ENCODING 157
SWIDTH 504 0
DWIDTH 7 0
BBX 6 8 0 0
BITMAP
FC
FC
FC
FC
FC
FC
FC
FC
ENDCHAR
STARTCHAR 158
ENCODING 158
SWIDTH 504 0
DWIDTH 7 0
BBX 6 9 0 0
BITMAP
50
20
00
FC
88
10
20
44
FC
ENDCHAR
STARTCHAR 159
ENCODING 159
SWIDTH 576 0
DWIDTH 8 0
BBX 7 9 0 0
BITMAP
28
82
82
44
28
10
10
10
10
ENDCHAR
STARTCHAR 160
ENCODING 160
SWIDTH 576 0
DWIDTH 8 0
BBX 0 0 0 0
BITMAP
ENDCHAR
STARTCHAR 161
ENCODING 161
SWIDTH 144 0
DWIDTH 2 0
BBX 1 9 0 0
BITMAP
80
00
80
80
80
80
80
80
80
ENDCHAR
STARTCHAR 162
ENCODING 162
SWIDTH 576 0
DWIDTH 8 0
BBX 7 8 0 0
BITMAP
10
7C
92
90
90
92
7C
10
ENDCHAR
STARTCHAR 163
ENCODING 163
SWIDTH 576 0
DWIDTH 8 0
BBX 7 8 0 0
BITMAP
38
44
40
F8
40
40
82
FC
ENDCHAR
STARTCHAR 164
ENCODING 164
SWIDTH 432 0
DWIDTH 6 0
BBX 5 5 0 2
BITMAP
88
70
50
70
88
ENDCHAR
STARTCHAR 165
ENCODING 165
SWIDTH 432 0
DWIDTH 6 0
BBX 5 8 0 0
BITMAP
88
88
88
50
20
F8
20
20
ENDCHAR
STARTCHAR 166
ENCODING 166
SWIDTH 144 0
DWIDTH 2 0
BBX 1 10 0 -1
BITMAP
80
80
80
80
00
00
80
80
80
80
ENDCHAR
STARTCHAR 167
ENCODING 167
SWIDTH 360 0
DWIDTH 5 0
BBX 4 9 0 0
BITMAP
60
90
80
E0
90
70
10
90
60
ENDCHAR
STARTCHAR 168
ENCODING 168
SWIDTH 360 0
DWIDTH 5 0
BBX 4 1 0 8
BITMAP
90
ENDCHAR
STARTCHAR 169
ENCODING 169
SWIDTH 576 0
DWIDTH 8 0
BBX 7 8 0 0
BITMAP
7C
82
9A
A2
A2
9A
82
7C
ENDCHAR
STARTCHAR 170
ENCODING 170
SWIDTH 432 0
DWIDTH 6 0
BBX 5 6 0 3
BITMAP
68
90
90
78
00
F8
ENDCHAR
STARTCHAR 171
ENCODING 171
SWIDTH 576 0
DWIDTH 8 0
BBX 7 7 0 0
BITMAP
12
24
48
90
48
24
12
ENDCHAR
STARTCHAR 172
ENCODING 172
SWIDTH 576 0
DWIDTH 8 0
BBX 7 4 0 0
BITMAP
FE
02
02
02
ENDCHAR
STARTCHAR 173
ENCODING 173
SWIDTH 576 0
DWIDTH 8 0
BBX 7 1 0 3
BITMAP
FE
ENDCHAR
STARTCHAR 174
ENCODING 174
SWIDTH 576 0
DWIDTH 8 0
BBX 7 8 0 0
BITMAP
7C
82
B2
AA
B2
AA
82
7C
ENDCHAR
STARTCHAR 175
ENCODING 175
SWIDTH 576 0
DWIDTH 8 0
BBX 7 1 0 8
BITMAP
FE
ENDCHAR
STARTCHAR 176
ENCODING 176
SWIDTH 288 0
DWIDTH 4 0
BBX 3 3 0 6
BITMAP
40
A0
40
ENDCHAR
STARTCHAR 177
ENCODING 177
SWIDTH 432 0
DWIDTH 6 0
BBX 5 8 0 0
BITMAP
20
20
F8
20
20
00
00
F8
ENDCHAR
STARTCHAR 178
ENCODING 178
SWIDTH 288 0
DWIDTH 4 0
BBX 3 5 0 4
BITMAP
E0
20
E0
80
E0
ENDCHAR
STARTCHAR 179
ENCODING 179
SWIDTH 288 0
DWIDTH 4 0
BBX 3 5 0 4
BITMAP
E0
20
E0
20
E0
ENDCHAR
STARTCHAR 180
ENCODING 180
SWIDTH 288 0
DWIDTH 4 0
BBX 3 3 0 6
BITMAP
20
40
80
ENDCHAR
STARTCHAR 181
ENCODING 181
SWIDTH 504 0
DWIDTH 7 0
BBX 6 7 0 -1
BITMAP
88
88
88
98
EC
80
80
ENDCHAR
STARTCHAR 182
ENCODING 182
SWIDTH 504 0
DWIDTH 7 0
BBX 6 8 0 0
BITMAP
7C
94
94
7C
14
14
14
14
ENDCHAR
STARTCHAR 183
ENCODING 183
SWIDTH 216 0
DWIDTH 3 0
BBX 2 2 0 3
BITMAP
C0
C0
ENDCHAR
STARTCHAR 184
ENCODING 184
SWIDTH 288 0
DWIDTH 4 0
BBX 3 3 0 -1
BITMAP
40
20
C0
ENDCHAR
STARTCHAR 185
ENCODING 185
SWIDTH 288 0
DWIDTH 4 0
BBX 3 5 0 4
BITMAP
60
A0
20
20
20
ENDCHAR
STARTCHAR 186
ENCODING 186
SWIDTH 360 0
DWIDTH 5 0
BBX 4 6 0 3
BITMAP
60
90
90
60
00
F0
ENDCHAR
STARTCHAR 187
ENCODING 187
SWIDTH 576 0
DWIDTH 8 0
BBX 7 7 0 0
BITMAP
90
48
24
12
24
48
90
ENDCHAR
STARTCHAR 188
ENCODING 188
SWIDTH 576 0
DWIDTH 8 0
BBX 7 10 0 -1
BITMAP
60
A2
24
28
30
2A
4A
8E
02
02
ENDCHAR
STARTCHAR 189
ENCODING 189
SWIDTH 576 0
DWIDTH 8 0
BBX 7 10 0 -1
BITMAP
60
A2
24
28
30
2E
42
8E
08
0E
ENDCHAR
STARTCHAR 190
ENCODING 190
SWIDTH 576 0
DWIDTH 8 0
BBX 7 10 0 -1
BITMAP
E0
22
E4
28
F0
2A
4A
8E
02
02
ENDCHAR
STARTCHAR 191
ENCODING 191
SWIDTH 576 0
DWIDTH 8 0
BBX 7 9 0 0
BITMAP
10
00
10
10
20
40
80
82
7C
ENDCHAR
STARTCHAR 192
ENCODING 192
SWIDTH 576 0
DWIDTH 8 0
BBX 7 9 0 0
BITMAP
20
10
00
7C
82
FE
82
82
82
ENDCHAR
STARTCHAR 193
ENCODING 193
SWIDTH 576 0
DWIDTH 8 0
BBX 7 9 0 0
BITMAP
08
10
00
7C
82
FE
82
82
82
ENDCHAR
STARTCHAR 194
ENCODING 194
SWIDTH 576 0
DWIDTH 8 0
BBX 7 9 0 0
BITMAP
10
28
00
7C
82
FE
82
82
82
ENDCHAR
STARTCHAR 195
ENCODING 195
SWIDTH 576 0
DWIDTH 8 0
BBX 7 9 0 0
BITMAP
14
28
00
7C
82
FE
82
82
82
ENDCHAR
STARTCHAR 196
ENCODING 196
SWIDTH 576 0
DWIDTH 8 0
BBX 7 9 0 0
BITMAP
28
00
7C
82
82
FE
82
82
82
ENDCHAR
STARTCHAR 197
ENCODING 197
SWIDTH 576 0
DWIDTH 8 0
BBX 7 9 0 0
BITMAP
10
00
7C
82
82
FE
82
82
82
ENDCHAR
STARTCHAR 198
ENCODING 198
SWIDTH 576 0
DWIDTH 8 0
BBX 7 8 0 0
BITMAP
7E
90
90
90
FC
90
90
9E
ENDCHAR
STARTCHAR 199
ENCODING 199
SWIDTH 576 0
DWIDTH 8 0
BBX 7 9 0 -1
BITMAP
7C
82
80
80
80
80
82
7C
10
ENDCHAR
STARTCHAR 200
ENCODING 200
SWIDTH 576 0
DWIDTH 8 0
BBX 7 9 0 0
BITMAP
20
10
00
FE
82
F8
80
82
FE
ENDCHAR
STARTCHAR 201
ENCODING 201
SWIDTH 576 0
DWIDTH 8 0
BBX 7 9 0 0
BITMAP
08
10
00
FE
82
F8
80
82
FE
ENDCHAR
STARTCHAR 202
ENCODING 202
SWIDTH 576 0
DWIDTH 8 0
BBX 7 9 0 0
BITMAP
10
28
00
FE
82
F8
80
82
FE
ENDCHAR
STARTCHAR 203
ENCODING 203
SWIDTH 576 0
DWIDTH 8 0
BBX 7 9 0 0
BITMAP
28
00
FE
82
80
F8
80
82
FE
ENDCHAR
STARTCHAR 204
ENCODING 204
SWIDTH 288 0
DWIDTH 4 0
BBX 3 9 0 0
BITMAP
80
40
00
E0
40
40
40
40
E0
ENDCHAR
STARTCHAR 205
ENCODING 205
SWIDTH 288 0
DWIDTH 4 0
BBX 3 9 0 0
BITMAP
20
40
00
E0
40
40
40
40
E0
ENDCHAR
STARTCHAR 206
ENCODING 206
SWIDTH 288 0
DWIDTH 4 0
BBX 3 9 0 0
BITMAP
40
A0
00
E0
40
40
40
40
E0
ENDCHAR
STARTCHAR 207
ENCODING 207
SWIDTH 288 0
DWIDTH 4 0
BBX 3 9 0 0
BITMAP
A0
00
E0
40
40
40
40
40
E0
ENDCHAR
STARTCHAR 208
ENCODING 208
SWIDTH 576 0
DWIDTH 8 0
BBX 7 8 0 0
BITMAP
FC
42
42
F2
42
42
C2
FC
ENDCHAR
STARTCHAR 209
ENCODING 209
SWIDTH 576 0
DWIDTH 8 0
BBX 7 9 0 0
BITMAP
14
28
00
82
C2
A2
92
8A
86
ENDCHAR
STARTCHAR 210
ENCODING 210
SWIDTH 576 0
DWIDTH 8 0
BBX 7 9 0 0
BITMAP
20
10
00
7C
82
82
82
82
7C
ENDCHAR
STARTCHAR 211
ENCODING 211
SWIDTH 576 0
DWIDTH 8 0
BBX 7 9 0 0
BITMAP
08
10
00
7C
82
82
82
82
7C
ENDCHAR
STARTCHAR 212
ENCODING 212
SWIDTH 576 0
DWIDTH 8 0
BBX 7 9 0 0
BITMAP
10
28
00
7C
82
82
82
82
7C
ENDCHAR
STARTCHAR 213
ENCODING 213
SWIDTH 576 0
DWIDTH 8 0
BBX 7 9 0 0
BITMAP
28
50
00
7C
82
82
82
82
7C
ENDCHAR
STARTCHAR 214
ENCODING 214
SWIDTH 576 0
DWIDTH 8 0
BBX 7 9 0 0
BITMAP
28
00
7C
82
82
82
82
82
7C
ENDCHAR
STARTCHAR 215
ENCODING 215
SWIDTH 432 0
DWIDTH 6 0
BBX 5 6 0 1
BITMAP
88
50
20
20
50
88
ENDCHAR
STARTCHAR 216
ENCODING 216
SWIDTH 576 0
DWIDTH 8 0
BBX 7 8 0 0
BITMAP
7C
82
86
8A
92
A2
C2
7C
ENDCHAR
STARTCHAR 217
ENCODING 217
SWIDTH 576 0
DWIDTH 8 0
BBX 7 9 0 0
BITMAP
20
10
82
82
82
82
82
82
7C
ENDCHAR
STARTCHAR 218
ENCODING 218
SWIDTH 576 0
DWIDTH 8 0
BBX 7 9 0 0
BITMAP
08
10
82
82
82
82
82
82
7C
ENDCHAR
STARTCHAR 219
ENCODING 219
SWIDTH 576 0
DWIDTH 8 0
BBX 7 9 0 0
BITMAP
10
28
82
82
82
82
82
82
7C
ENDCHAR
STARTCHAR 220
ENCODING 220
SWIDTH 576 0
DWIDTH 8 0
BBX 7 9 0 0
BITMAP
28
00
82
82
82
82
82
82
7C
ENDCHAR
STARTCHAR 221
ENCODING 221
SWIDTH 576 0
DWIDTH 8 0
BBX 7 9 0 0
BITMAP
08
10
82
82
44
28
10
10
10
ENDCHAR
STARTCHAR 222
ENCODING 222
SWIDTH 360 0
DWIDTH 5 0
BBX 4 7 0 0
BITMAP
80
E0
90
90
90
E0
80
ENDCHAR
STARTCHAR 223
ENCODING 223
SWIDTH 432 0
DWIDTH 6 0
BBX 5 8 0 0
BITMAP
70
88
88
90
88
88
88
90
ENDCHAR
STARTCHAR 224
ENCODING 224
SWIDTH 576 0
DWIDTH 8 0
BBX 7 9 0 0
BITMAP
20
10
00
74
8C
84
84
8C
76
ENDCHAR
STARTCHAR 225
ENCODING 225
SWIDTH 576 0
DWIDTH 8 0
BBX 7 9 0 0
BITMAP
08
10
00
74
8C
84
84
8C
76
ENDCHAR
STARTCHAR 226
ENCODING 226
SWIDTH 576 0
DWIDTH 8 0
BBX 7 9 0 0
BITMAP
10
28
00
74
8C
84
84
8C
76
ENDCHAR
STARTCHAR 227
ENCODING 227
SWIDTH 576 0
DWIDTH 8 0
BBX 7 9 0 0
BITMAP
28
50
00
74
8C
84
84
8C
76
ENDCHAR
STARTCHAR 228
ENCODING 228
SWIDTH 576 0
DWIDTH 8 0
BBX 7 8 0 0
BITMAP
48
00
74
8C
84
84
8C
76
ENDCHAR
STARTCHAR 229
ENCODING 229
SWIDTH 576 0
DWIDTH 8 0
BBX 7 8 0 0
BITMAP
20
00
74
8C
84
84
8C
76
ENDCHAR
STARTCHAR 230
ENCODING 230
SWIDTH 576 0
DWIDTH 8 0
BBX 7 6 0 0
BITMAP
6E
18
7E
88
88
7E
ENDCHAR
STARTCHAR 231
ENCODING 231
SWIDTH 576 0
DWIDTH 8 0
BBX 7 8 0 -1
BITMAP
7C
82
80
80
82
7C
08
30
ENDCHAR
STARTCHAR 232
ENCODING 232
SWIDTH 576 0
DWIDTH 8 0
BBX 7 9 0 0
BITMAP
20
10
00
7C
82
FE
80
82
7C
ENDCHAR
STARTCHAR 233
ENCODING 233
SWIDTH 576 0
DWIDTH 8 0
BBX 7 9 0 0
BITMAP
08
10
00
7C
82
FE
80
82
7C
ENDCHAR
STARTCHAR 234
ENCODING 234
SWIDTH 576 0
DWIDTH 8 0
BBX 7 9 0 0
BITMAP
10
28
00
7C
82
FE
80
82
7C
ENDCHAR
STARTCHAR 235
ENCODING 235
SWIDTH 576 0
DWIDTH 8 0
BBX 7 8 0 0
BITMAP
28
00
7C
82
FE
80
82
7C
ENDCHAR
STARTCHAR 236
ENCODING 236
SWIDTH 288 0
DWIDTH 4 0
BBX 3 9 0 0
BITMAP
80
40
00
C0
40
40
40
40
E0
ENDCHAR
STARTCHAR 237
ENCODING 237
SWIDTH 288 0
DWIDTH 4 0
BBX 3 9 0 0
BITMAP
20
40
00
C0
40
40
40
40
E0
ENDCHAR
STARTCHAR 238
ENCODING 238
SWIDTH 288 0
DWIDTH 4 0
BBX 3 9 0 0
BITMAP
40
A0
00
C0
40
40
40
40
E0
ENDCHAR
STARTCHAR 239
ENCODING 239
SWIDTH 288 0
DWIDTH 4 0
BBX 3 8 0 0
BITMAP
A0
00
C0
40
40
40
40
E0
ENDCHAR
STARTCHAR 240
ENCODING 240
SWIDTH 576 0
DWIDTH 8 0
BBX 7 9 0 0
BITMAP
28
10
28
04
7C
82
82
82
7C
ENDCHAR
STARTCHAR 241
ENCODING 241
SWIDTH 576 0
DWIDTH 8 0
BBX 7 9 0 0
BITMAP
28
50
00
D8
64
44
44
44
EE
ENDCHAR
STARTCHAR 242
ENCODING 242
SWIDTH 504 0
DWIDTH 7 0
BBX 6 9 0 0
BITMAP
40
20
00
78
84
84
84
84
78
ENDCHAR
STARTCHAR 243
ENCODING 243
SWIDTH 504 0
DWIDTH 7 0
BBX 6 9 0 0
BITMAP
10
20
00
78
84
84
84
84
78
ENDCHAR
STARTCHAR 244
ENCODING 244
SWIDTH 504 0
DWIDTH 7 0
BBX 6 9 0 0
BITMAP
10
28
00
78
84
84
84
84
78
ENDCHAR
STARTCHAR 245
ENCODING 245
SWIDTH 504 0
DWIDTH 7 0
BBX 6 9 0 0
BITMAP
28
50
00
78
84
84
84
84
78
ENDCHAR
STARTCHAR 246
ENCODING 246
SWIDTH 504 0
DWIDTH 7 0
BBX 6 8 0 0
BITMAP
48
00
78
84
84
84
84
78
ENDCHAR
STARTCHAR 247
ENCODING 247
SWIDTH 432 0
DWIDTH 6 0
BBX 5 5 0 1
BITMAP
20
00
F8
00
20
ENDCHAR
STARTCHAR 248
ENCODING 248
SWIDTH 504 0
DWIDTH 7 0
BBX 6 6 0 0
BITMAP
78
8C
94
A4
C4
78
ENDCHAR
STARTCHAR 249
ENCODING 249
SWIDTH 576 0
DWIDTH 8 0
BBX 7 9 0 0
BITMAP
20
10
00
84
84
84
84
8C
76
ENDCHAR
STARTCHAR 250
ENCODING 250
SWIDTH 576 0
DWIDTH 8 0
BBX 7 9 0 0
BITMAP
10
20
00
84
84
84
84
8C
76
ENDCHAR
STARTCHAR 251
ENCODING 251
SWIDTH 576 0
DWIDTH 8 0
BBX 7 9 0 0
BITMAP
20
50
00
84
84
84
84
8C
76
ENDCHAR
STARTCHAR 252
ENCODING 252
SWIDTH 576 0
DWIDTH 8 0
BBX 7 8 0 0
BITMAP
48
00
84
84
84
84
8C
76
ENDCHAR
STARTCHAR 253
ENCODING 253
SWIDTH 576 0
DWIDTH 8 0
BBX 7 9 0 0
BITMAP
10
20
86
84
84
7C
04
84
78
ENDCHAR
STARTCHAR 254
ENCODING 254
SWIDTH 360 0
DWIDTH 5 0
BBX 4 8 0 0
BITMAP
80
80
E0
90
90
90
E0
80
ENDCHAR
STARTCHAR 255
ENCODING 255
SWIDTH 576 0
DWIDTH 8 0
BBX 7 9 0 0
BITMAP
48
00
86
84
84
7C
04
84
78
ENDCHAR
ENDFONT
